<svg xmlns="http://www.w3.org/2000/svg" xmlns:xlink="http://www.w3.org/1999/xlink" width="500" zoomAndPan="magnify" viewBox="0 0 375 61.499998" height="82" preserveAspectRatio="xMidYMid meet" version="1.0"><path fill="#ffffff" d="M 37.15625 51.410156 L 37.15625 52.136719 C 37.15625 52.136719 36.933594 52.191406 36.933594 52.191406 C 36.414062 52.324219 35.894531 52.457031 35.375 52.582031 L 33.386719 53.082031 C 31.070312 53.660156 28.675781 54.257812 26.316406 54.835938 C 26.105469 54.886719 25.894531 54.925781 25.695312 54.945312 C 24.429688 54.070312 23.207031 53.101562 22.058594 52.066406 C 27.082031 51.847656 32.109375 51.628906 37.152344 51.410156 Z M 37.15625 51.410156 " fill-opacity="1" fill-rule="nonzero"/><path fill="#ffffff" d="M 44.664062 40.957031 L 43.257812 42.535156 L 43.042969 42.355469 C 42.726562 42.089844 42.410156 41.820312 42.09375 41.554688 L 37.613281 37.75 C 35.375 35.855469 33.140625 33.957031 30.90625 32.058594 C 29.152344 30.566406 27.390625 29.082031 25.636719 27.589844 C 24.265625 26.433594 22.894531 25.273438 21.527344 24.109375 C 18.1875 21.277344 14.839844 18.441406 11.5 15.601562 C 11.882812 14.238281 12.347656 12.890625 12.882812 11.589844 C 13.257812 10.695312 13.671875 9.796875 14.121094 8.929688 C 14.699219 7.796875 15.347656 6.683594 16.042969 5.625 L 24.140625 15.621094 C 30.988281 24.074219 37.824219 32.511719 44.664062 40.957031 Z M 44.664062 40.957031 " fill-opacity="1" fill-rule="nonzero"/><path fill="#ffffff" d="M 42.128906 43.796875 L 40.304688 45.84375 C 37.960938 44.816406 35.617188 43.789062 33.273438 42.753906 L 27.429688 40.183594 C 21.949219 37.769531 16.460938 35.359375 10.96875 32.953125 C 10.558594 31.03125 10.300781 29.054688 10.207031 27.074219 C 10.179688 26.511719 10.164062 25.929688 10.164062 25.335938 C 10.164062 24.894531 10.171875 24.433594 10.191406 23.964844 C 10.25 22.414062 10.410156 20.863281 10.660156 19.351562 C 21.179688 27.523438 31.644531 35.652344 42.128906 43.796875 Z M 42.128906 43.796875 " fill-opacity="1" fill-rule="nonzero"/><path fill="#ffffff" d="M 39.109375 47.179688 L 37.886719 48.546875 C 37.570312 48.898438 37.351562 49.320312 37.238281 49.773438 L 35.46875 49.714844 C 33.464844 49.652344 31.464844 49.589844 29.460938 49.523438 C 26.035156 49.410156 22.617188 49.296875 19.191406 49.179688 C 17.890625 47.710938 16.707031 46.125 15.660156 44.464844 C 15.09375 43.566406 14.5625 42.632812 14.082031 41.6875 C 13.371094 40.292969 12.746094 38.839844 12.222656 37.359375 L 39.105469 47.179688 Z M 39.109375 47.179688 " fill-opacity="1" fill-rule="nonzero"/><path fill="#ffffff" d="M 70.761719 52.070312 C 69.613281 53.109375 68.390625 54.074219 67.125 54.949219 C 66.925781 54.929688 66.714844 54.890625 66.503906 54.839844 C 64.125 54.253906 61.707031 53.652344 59.371094 53.070312 L 57.445312 52.589844 C 56.921875 52.457031 56.398438 52.324219 55.878906 52.191406 L 55.664062 52.136719 L 55.664062 51.414062 C 60.710938 51.632812 65.738281 51.851562 70.761719 52.070312 Z M 70.761719 52.070312 " fill-opacity="1" fill-rule="nonzero"/><path fill="#ffffff" d="M 81.324219 15.601562 C 77.980469 18.441406 74.636719 21.277344 71.296875 24.109375 C 69.90625 25.289062 68.515625 26.464844 67.125 27.644531 C 65.386719 29.113281 63.652344 30.585938 61.917969 32.058594 C 59.753906 33.894531 57.59375 35.730469 55.433594 37.5625 L 50.726562 41.554688 C 50.40625 41.828125 50.082031 42.097656 49.761719 42.375 L 49.5625 42.539062 L 48.152344 40.957031 C 54.996094 32.511719 61.832031 24.074219 68.679688 15.621094 L 76.777344 5.625 C 77.472656 6.6875 78.121094 7.796875 78.699219 8.929688 C 79.148438 9.800781 79.5625 10.695312 79.933594 11.589844 C 80.46875 12.890625 80.9375 14.238281 81.320312 15.601562 Z M 81.324219 15.601562 " fill-opacity="1" fill-rule="nonzero"/><path fill="#ffffff" d="M 82.65625 25.339844 C 82.65625 25.929688 82.640625 26.511719 82.613281 27.078125 C 82.519531 29.054688 82.261719 31.03125 81.847656 32.953125 C 76.40625 35.335938 70.96875 37.730469 65.53125 40.121094 L 59.542969 42.753906 C 57.460938 43.671875 55.007812 44.753906 52.515625 45.84375 L 50.691406 43.796875 C 61.175781 35.652344 71.636719 27.523438 82.15625 19.351562 C 82.410156 20.863281 82.570312 22.414062 82.628906 23.964844 C 82.644531 24.433594 82.652344 24.894531 82.652344 25.335938 Z M 82.65625 25.339844 " fill-opacity="1" fill-rule="nonzero"/><path fill="#ffffff" d="M 80.597656 37.359375 C 80.074219 38.839844 79.449219 40.292969 78.738281 41.6875 C 78.257812 42.632812 77.726562 43.5625 77.160156 44.464844 C 76.113281 46.125 74.925781 47.710938 73.628906 49.179688 C 70.203125 49.296875 66.785156 49.410156 63.359375 49.523438 C 61.355469 49.589844 59.355469 49.652344 57.351562 49.714844 L 55.578125 49.773438 C 55.464844 49.320312 55.246094 48.902344 54.933594 48.550781 L 53.710938 47.179688 L 80.59375 37.363281 Z M 80.597656 37.359375 " fill-opacity="1" fill-rule="nonzero"/><path fill="#ffffff" d="M 161.492188 6.511719 L 152.570312 6.511719 L 142.394531 48.167969 L 142.394531 6.511719 L 123.160156 6.511719 L 111.390625 54.949219 L 121.867188 54.949219 L 132.085938 12.910156 L 132.085938 54.949219 L 151.210938 54.949219 L 161.492188 12.886719 L 161.492188 54.949219 L 171.742188 54.949219 L 171.742188 6.511719 Z M 161.492188 6.511719 " fill-opacity="1" fill-rule="nonzero"/><path fill="#ffffff" d="M 200.902344 5.171875 C 186.8125 5.171875 175.351562 16.621094 175.351562 30.699219 C 175.351562 44.8125 186.8125 56.292969 200.902344 56.292969 C 215.023438 56.292969 226.511719 44.8125 226.511719 30.699219 C 226.511719 23.835938 223.847656 17.410156 219.011719 12.601562 C 214.1875 7.808594 207.757812 5.167969 200.902344 5.167969 Z M 216.203125 30.761719 C 216.203125 39.160156 209.339844 45.992188 200.902344 45.992188 C 192.496094 45.992188 185.660156 39.160156 185.660156 30.761719 C 185.660156 22.332031 192.496094 15.472656 200.902344 15.472656 C 209.339844 15.472656 216.203125 22.332031 216.203125 30.761719 Z M 216.203125 30.761719 " fill-opacity="1" fill-rule="nonzero"/><path fill="#ffffff" d="M 251.144531 35.179688 L 265.613281 35.179688 C 265.613281 35.179688 265.613281 41.703125 265.613281 41.703125 C 262.726562 44.472656 258.957031 45.992188 254.953125 45.992188 C 250.867188 45.992188 247.042969 44.390625 244.175781 41.46875 C 241.296875 38.59375 239.710938 34.769531 239.710938 30.699219 C 239.710938 26.648438 241.300781 22.796875 244.175781 19.867188 C 247.054688 16.992188 250.882812 15.410156 254.953125 15.410156 C 259.140625 15.410156 263.042969 17.070312 265.953125 20.085938 L 267.257812 21.441406 L 274.617188 14.179688 L 273.3125 12.859375 C 268.417969 7.898438 261.898438 5.167969 254.953125 5.167969 C 248.117188 5.167969 241.710938 7.808594 236.910156 12.605469 C 232.140625 17.371094 229.40625 23.964844 229.40625 30.699219 C 229.40625 37.457031 232.066406 43.882812 236.898438 48.78125 C 241.679688 53.621094 248.089844 56.289062 254.953125 56.289062 C 261.859375 56.289062 268.378906 53.535156 273.3125 48.535156 L 273.355469 48.492188 C 274.199219 47.578125 274.902344 46.730469 275.566406 45.828125 L 275.925781 45.335938 L 275.925781 24.875 C 275.925781 24.875 251.144531 24.875 251.144531 24.875 Z M 251.144531 35.179688 " fill-opacity="1" fill-rule="nonzero"/><path fill="#ffffff" d="M 309.527344 36.742188 C 309.527344 41.925781 305.433594 45.992188 300.210938 45.992188 C 295.019531 45.992188 290.953125 41.925781 290.953125 36.742188 L 290.953125 6.511719 C 290.953125 6.511719 280.644531 6.511719 280.644531 6.511719 L 280.644531 36.742188 C 280.644531 47.519531 289.421875 56.292969 300.210938 56.292969 C 311.035156 56.292969 319.839844 47.523438 319.839844 36.742188 L 319.839844 6.511719 C 319.839844 6.511719 309.53125 6.511719 309.53125 6.511719 L 309.53125 36.742188 Z M 309.527344 36.742188 " fill-opacity="1" fill-rule="nonzero"/><path fill="#ffffff" d="M 335.589844 44.648438 L 335.589844 6.511719 L 325.28125 6.511719 L 325.28125 54.949219 L 364.535156 54.949219 L 364.535156 44.648438 Z M 335.589844 44.648438 " fill-opacity="1" fill-rule="nonzero"/></svg>