<svg xmlns="http://www.w3.org/2000/svg" xmlns:xlink="http://www.w3.org/1999/xlink" width="500" zoomAndPan="magnify" viewBox="0 0 375 61.499998" height="82" preserveAspectRatio="xMidYMid meet" version="1.0"><path fill="#000000" d="M 37.089844 51.554688 L 37.089844 52.28125 C 37.089844 52.28125 36.867188 52.335938 36.867188 52.335938 C 36.351562 52.46875 35.832031 52.601562 35.3125 52.730469 L 33.324219 53.230469 C 31.007812 53.808594 28.609375 54.40625 26.253906 54.988281 C 26.039062 55.039062 25.832031 55.078125 25.632812 55.097656 C 24.363281 54.21875 23.144531 53.25 21.996094 52.210938 C 27.019531 51.992188 32.046875 51.773438 37.089844 51.550781 Z M 37.089844 51.554688 " fill-opacity="1" fill-rule="nonzero"/><path fill="#000000" d="M 44.601562 41.066406 L 43.191406 42.652344 L 42.980469 42.472656 C 42.660156 42.203125 42.34375 41.9375 42.03125 41.667969 L 37.546875 37.851562 C 35.3125 35.953125 33.074219 34.046875 30.84375 32.144531 C 29.085938 30.648438 27.328125 29.160156 25.570312 27.664062 C 24.203125 26.503906 22.832031 25.339844 21.464844 24.171875 C 18.121094 21.332031 14.777344 18.488281 11.4375 15.640625 C 11.820312 14.273438 12.285156 12.921875 12.820312 11.617188 C 13.191406 10.71875 13.609375 9.820312 14.054688 8.949219 C 14.636719 7.8125 15.285156 6.695312 15.980469 5.632812 L 24.078125 15.660156 C 30.925781 24.136719 37.757812 32.597656 44.601562 41.070312 Z M 44.601562 41.066406 " fill-opacity="1" fill-rule="nonzero"/><path fill="#000000" d="M 42.066406 43.917969 L 40.238281 45.96875 C 37.898438 44.941406 35.554688 43.90625 33.210938 42.871094 L 27.367188 40.292969 C 21.882812 37.875 16.394531 35.453125 10.90625 33.039062 C 10.496094 31.113281 10.238281 29.132812 10.144531 27.148438 C 10.113281 26.582031 10.101562 26 10.101562 25.40625 C 10.101562 24.960938 10.109375 24.496094 10.125 24.027344 C 10.1875 22.472656 10.34375 20.917969 10.597656 19.402344 C 21.117188 27.597656 31.578125 35.75 42.0625 43.917969 Z M 42.066406 43.917969 " fill-opacity="1" fill-rule="nonzero"/><path fill="#000000" d="M 39.042969 47.308594 L 37.824219 48.683594 C 37.507812 49.035156 37.289062 49.453125 37.175781 49.910156 L 35.40625 49.855469 C 33.402344 49.789062 31.398438 49.726562 29.394531 49.660156 C 25.972656 49.546875 22.550781 49.433594 19.128906 49.316406 C 17.828125 47.84375 16.644531 46.253906 15.597656 44.585938 C 15.03125 43.683594 14.5 42.75 14.019531 41.800781 C 13.304688 40.402344 12.679688 38.945312 12.160156 37.464844 Z M 39.042969 47.308594 " fill-opacity="1" fill-rule="nonzero"/><path fill="#000000" d="M 70.695312 52.214844 C 69.546875 53.253906 68.328125 54.222656 67.058594 55.105469 C 66.859375 55.082031 66.652344 55.042969 66.4375 54.992188 C 64.058594 54.40625 61.644531 53.800781 59.304688 53.21875 L 57.382812 52.734375 C 56.859375 52.605469 56.332031 52.472656 55.816406 52.335938 L 55.601562 52.28125 L 55.601562 51.554688 C 60.644531 51.777344 65.671875 51.996094 70.695312 52.214844 Z M 70.695312 52.214844 " fill-opacity="1" fill-rule="nonzero"/><path fill="#000000" d="M 81.257812 15.640625 C 77.917969 18.488281 74.574219 21.332031 71.230469 24.171875 C 69.839844 25.355469 68.449219 26.535156 67.0625 27.71875 C 65.324219 29.191406 63.585938 30.667969 61.851562 32.148438 C 59.6875 33.984375 57.527344 35.824219 55.367188 37.664062 L 50.660156 41.667969 C 50.339844 41.941406 50.019531 42.214844 49.695312 42.488281 L 49.5 42.65625 L 48.089844 41.070312 C 54.933594 32.601562 61.765625 24.136719 68.613281 15.660156 L 76.710938 5.632812 C 77.40625 6.699219 78.054688 7.8125 78.636719 8.949219 C 79.085938 9.820312 79.5 10.71875 79.867188 11.617188 C 80.40625 12.921875 80.871094 14.273438 81.257812 15.640625 Z M 81.257812 15.640625 " fill-opacity="1" fill-rule="nonzero"/><path fill="#000000" d="M 82.589844 25.40625 C 82.589844 26 82.578125 26.582031 82.546875 27.148438 C 82.453125 29.132812 82.199219 31.113281 81.78125 33.039062 C 76.34375 35.433594 70.902344 37.832031 65.464844 40.230469 L 59.476562 42.871094 C 57.394531 43.792969 54.941406 44.875 52.449219 45.96875 L 50.625 43.917969 C 61.109375 35.75 71.570312 27.597656 82.09375 19.402344 C 82.347656 20.917969 82.507812 22.472656 82.5625 24.027344 C 82.578125 24.496094 82.585938 24.960938 82.585938 25.40625 Z M 82.589844 25.40625 " fill-opacity="1" fill-rule="nonzero"/><path fill="#000000" d="M 80.53125 37.464844 C 80.007812 38.945312 79.386719 40.402344 78.671875 41.800781 C 78.191406 42.75 77.660156 43.683594 77.09375 44.585938 C 76.046875 46.25 74.859375 47.839844 73.5625 49.316406 C 70.140625 49.433594 66.71875 49.546875 63.296875 49.660156 C 61.292969 49.726562 59.289062 49.789062 57.285156 49.855469 L 55.511719 49.910156 C 55.402344 49.457031 55.179688 49.035156 54.867188 48.683594 L 53.644531 47.3125 Z M 80.53125 37.464844 " fill-opacity="1" fill-rule="nonzero"/><path fill="#000000" d="M 161.425781 6.523438 L 152.503906 6.523438 L 142.328125 48.300781 L 142.328125 6.523438 L 123.09375 6.523438 L 111.324219 55.105469 L 121.800781 55.105469 L 132.019531 12.941406 L 132.019531 55.105469 L 151.144531 55.105469 L 161.425781 12.917969 L 161.425781 55.105469 L 171.671875 55.105469 L 171.671875 6.523438 Z M 161.425781 6.523438 " fill-opacity="1" fill-rule="nonzero"/><path fill="#000000" d="M 200.832031 5.179688 C 186.746094 5.179688 175.285156 16.664062 175.285156 30.78125 C 175.285156 44.933594 186.746094 56.449219 200.832031 56.449219 C 214.953125 56.449219 226.445312 44.933594 226.445312 30.78125 C 226.445312 23.898438 223.78125 17.457031 218.941406 12.632812 C 214.121094 7.824219 207.6875 5.175781 200.832031 5.175781 Z M 216.136719 30.84375 C 216.136719 39.265625 209.269531 46.117188 200.832031 46.117188 C 192.429688 46.117188 185.59375 39.265625 185.59375 30.84375 C 185.59375 22.390625 192.429688 15.507812 200.832031 15.507812 C 209.269531 15.507812 216.136719 22.390625 216.136719 30.84375 Z M 216.136719 30.84375 " fill-opacity="1" fill-rule="nonzero"/><path fill="#000000" d="M 251.074219 35.273438 L 265.546875 35.273438 C 265.546875 35.273438 265.546875 41.820312 265.546875 41.820312 C 262.65625 44.59375 258.890625 46.117188 254.886719 46.117188 C 250.796875 46.117188 246.972656 44.511719 244.109375 41.582031 C 241.230469 38.699219 239.644531 34.863281 239.644531 30.78125 C 239.644531 26.71875 241.234375 22.855469 244.109375 19.917969 C 246.984375 17.035156 250.8125 15.445312 254.886719 15.445312 C 259.070312 15.445312 262.976562 17.113281 265.882812 20.136719 L 267.1875 21.496094 L 274.546875 14.214844 L 273.242188 12.890625 C 268.347656 7.914062 261.828125 5.175781 254.886719 5.175781 C 248.046875 5.175781 241.640625 7.824219 236.84375 12.636719 C 232.074219 17.414062 229.335938 24.027344 229.335938 30.78125 C 229.335938 37.558594 232 44.003906 236.832031 48.914062 C 241.609375 53.769531 248.019531 56.445312 254.886719 56.445312 C 261.789062 56.445312 268.308594 53.683594 273.242188 48.671875 L 273.285156 48.625 C 274.128906 47.707031 274.832031 46.859375 275.496094 45.953125 L 275.855469 45.460938 L 275.855469 24.9375 C 275.855469 24.9375 251.078125 24.9375 251.078125 24.9375 L 251.078125 35.269531 Z M 251.074219 35.273438 " fill-opacity="1" fill-rule="nonzero"/><path fill="#000000" d="M 309.457031 36.839844 C 309.457031 42.042969 305.363281 46.117188 300.140625 46.117188 C 294.949219 46.117188 290.882812 42.042969 290.882812 36.839844 L 290.882812 6.523438 C 290.882812 6.523438 280.574219 6.523438 280.574219 6.523438 L 280.574219 36.839844 C 280.574219 47.652344 289.351562 56.449219 300.140625 56.449219 C 310.964844 56.449219 319.769531 47.652344 319.769531 36.839844 L 319.769531 6.523438 C 319.769531 6.523438 309.460938 6.523438 309.460938 6.523438 L 309.460938 36.839844 Z M 309.457031 36.839844 " fill-opacity="1" fill-rule="nonzero"/><path fill="#000000" d="M 335.519531 44.773438 L 335.519531 6.523438 L 325.210938 6.523438 L 325.210938 55.105469 L 364.460938 55.105469 L 364.460938 44.773438 Z M 335.519531 44.773438 " fill-opacity="1" fill-rule="nonzero"/></svg>